<mxfile host="app.diagrams.net" modified="2020-06-11T07:04:58.858Z" agent="5.0 (Windows NT 10.0; Win64; x64) AppleWebKit/537.36 (KHTML, like Gecko) Chrome/83.0.4103.97 Safari/537.36" etag="8n9DLe2C4VZzHvMpMcNK" version="13.2.1" type="github">
  <diagram id="rjoIvugQ4J_2igaZ8Pm4" name="第 1 页">
    <mxGraphModel dx="940" dy="757" grid="1" gridSize="10" guides="1" tooltips="1" connect="1" arrows="1" fold="1" page="1" pageScale="1" pageWidth="827" pageHeight="1169" math="0" shadow="0">
      <root>
        <mxCell id="0" />
        <mxCell id="1" parent="0" />
        <mxCell id="9Wsu3zy8gBpHyvNEBgWZ-3" value="代入" style="edgeStyle=orthogonalEdgeStyle;rounded=0;orthogonalLoop=1;jettySize=auto;html=1;entryX=0.5;entryY=0;entryDx=0;entryDy=0;" parent="1" source="YYsq3FzB5dYFGgJUR1bW-1" target="9Wsu3zy8gBpHyvNEBgWZ-2" edge="1">
          <mxGeometry relative="1" as="geometry" />
        </mxCell>
        <mxCell id="YYsq3FzB5dYFGgJUR1bW-1" value="取x的值" style="rounded=1;whiteSpace=wrap;html=1;" parent="1" vertex="1">
          <mxGeometry x="190" y="80" width="110" height="40" as="geometry" />
        </mxCell>
        <mxCell id="9Wsu3zy8gBpHyvNEBgWZ-1" value="&lt;font style=&quot;font-size: 20px&quot;&gt;1.方程的解&lt;/font&gt;" style="text;html=1;align=center;verticalAlign=middle;resizable=0;points=[];autosize=1;" parent="1" vertex="1">
          <mxGeometry x="90" y="27" width="110" height="20" as="geometry" />
        </mxCell>
        <mxCell id="9Wsu3zy8gBpHyvNEBgWZ-5" style="edgeStyle=orthogonalEdgeStyle;rounded=0;orthogonalLoop=1;jettySize=auto;html=1;entryX=0.5;entryY=0;entryDx=0;entryDy=0;" parent="1" source="9Wsu3zy8gBpHyvNEBgWZ-2" target="9Wsu3zy8gBpHyvNEBgWZ-4" edge="1">
          <mxGeometry relative="1" as="geometry" />
        </mxCell>
        <mxCell id="9Wsu3zy8gBpHyvNEBgWZ-15" value="不成立" style="edgeStyle=orthogonalEdgeStyle;rounded=0;orthogonalLoop=1;jettySize=auto;html=1;" parent="1" source="9Wsu3zy8gBpHyvNEBgWZ-2" edge="1">
          <mxGeometry x="0.4545" relative="1" as="geometry">
            <mxPoint x="290" y="120" as="targetPoint" />
            <mxPoint as="offset" />
          </mxGeometry>
        </mxCell>
        <mxCell id="9Wsu3zy8gBpHyvNEBgWZ-2" value="1700+150x=2450" style="rounded=1;whiteSpace=wrap;html=1;" parent="1" vertex="1">
          <mxGeometry x="130" y="160" width="110" height="40" as="geometry" />
        </mxCell>
        <mxCell id="9Wsu3zy8gBpHyvNEBgWZ-4" value="得方程得解" style="rounded=1;whiteSpace=wrap;html=1;" parent="1" vertex="1">
          <mxGeometry x="60" y="230" width="110" height="40" as="geometry" />
        </mxCell>
      </root>
    </mxGraphModel>
  </diagram>
</mxfile>
